<svg xmlns="http://www.w3.org/2000/svg" viewBox="0 0 651.32 700"><defs><style>.cls-1{fill:none;stroke:#da2382;stroke-linecap:round;stroke-linejoin:round;stroke-width:50px;}</style></defs><g id="Camada_2" data-name="Camada 2"><g id="Editable-line"><circle class="cls-1" cx="325.66" cy="350" r="100"/><path class="cls-1" d="M619.61,209.15l-25-43.3a50,50,0,0,0-68.3-18.3l-13.15,7.6c-50,28.85-112.5-7.23-112.5-64.95V75a50,50,0,0,0-50-50h-50a50,50,0,0,0-50,50V90.2c0,57.72-62.5,93.83-112.5,65L125,147.55a50,50,0,0,0-68.3,18.3l-25,43.3A50,50,0,0,0,50,277.45l13.15,7.6c50,28.88,50,101,0,129.9L50,422.55a50,50,0,0,0-18.3,68.3l25,43.3a50,50,0,0,0,68.3,18.3l13.15-7.6c50-28.88,112.5,7.23,112.5,64.95V625a50,50,0,0,0,50,50h50a50,50,0,0,0,50-50V609.8c0-57.72,62.5-93.83,112.5-64.95l13.15,7.6a50,50,0,0,0,68.3-18.3l25-43.3a50,50,0,0,0-18.3-68.3L588.16,415c-50-28.88-50-101,0-129.9l13.15-7.6A50,50,0,0,0,619.61,209.15Z"/></g></g></svg>