<?xml version="1.0" encoding="utf-8"?>
<!-- Generator: Adobe Illustrator 24.2.1, SVG Export Plug-In . SVG Version: 6.00 Build 0)  -->
<svg version="1.1" id="Camada_1" xmlns="http://www.w3.org/2000/svg" xmlns:xlink="http://www.w3.org/1999/xlink" x="0px" y="0px"
	 viewBox="0 0 22 25" style="enable-background:new 0 0 22 25;" xml:space="preserve">
<style type="text/css">
	.st0{fill:none;stroke:#DA2382;stroke-linecap:round;stroke-linejoin:round;}
</style>
<desc>Created with Sketch.</desc>
<g id="Extra-2">
	<g id="Icons" transform="translate(-1081.000000, -1727.000000)">
		<g id="Group-1041" transform="translate(1081.000000, 1728.000000)">
			<path id="Stroke-230" class="st0" d="M15.5,2.9c-2,0-3.8-0.9-5-2.4h0c-1.2,1.5-3,2.4-5,2.4c-1.8,0-3.4-0.7-5-1.9v14.8
				c0,0,1.5,5.3,10,7.7c8.6-2.4,10-7.7,10-7.7V1C18.8,2.2,17.2,2.9,15.5,2.9L15.5,2.9z"/>
			<polygon id="Stroke-232" class="st0" points="15.5,9.5 12.5,9.5 12.5,6.5 8.5,6.5 8.5,9.5 5.5,9.5 5.5,13.5 8.5,13.5 8.5,16.5 
				12.5,16.5 12.5,13.5 15.5,13.5 			"/>
		</g>
	</g>
</g>
</svg>
