<svg xmlns="http://www.w3.org/2000/svg" viewBox="0 0 733.63 529.72"><defs><style>.cls-1{fill:#da2382;}</style></defs><g id="Camada_2" data-name="Camada 2"><g id="Camada_1-2" data-name="Camada 1"><g id="Q3_icons" data-name="Q3 icons"><path class="cls-1" d="M728.27,478.05c-76.66-128.33-266.66-256.66-370-270a32.81,32.81,0,1,0-8.33,65c46.67,8.34,126.67,50,198.33,106.67-60,56.67-150,81.67-223.33,60-128.33-36.67-193.33-201.67-240-338.33L211.61,83.05c110-20,205-36.66,268.33,6.67s66.67,83.33,76.67,138.33l43.33,30a16.67,16.67,0,0,0,26.67-15c-10-78.33-35-156.66-108.34-206.66s-198.33-40-318.33-20A1343.19,1343.19,0,0,1,38.27,38.05H16.61a15,15,0,0,0-15,21.67l6.66,20C59.94,236.39,131.61,451.39,304.94,503.05a289.62,289.62,0,0,0,75,10,325,325,0,0,0,220-88.33,490.08,490.08,0,0,1,71.67,88.33,31.67,31.67,0,0,0,28.33,16.67,36.68,36.68,0,0,0,21.67-6.67A35,35,0,0,0,728.27,478.05Z"/></g></g></g></svg>