<svg xmlns="http://www.w3.org/2000/svg" viewBox="0 0 800 649.7"><defs><style>.cls-1{fill:#da2382;}</style></defs><g id="Camada_2" data-name="Camada 2"><g id="_2" data-name="2"><polygon class="cls-1" points="154.71 596.72 205 649.7 387.84 476.12 334.79 425.75 154.71 596.72"/><path class="cls-1" d="M768,64.84C716.64,10.78,621,18.3,559.88,76.29c-37.13,35.27-53.34,83.86-53.47,124.58-.09,35.77-3,60.4-30.73,91.14L439.3,326.55l53,50.37L526,345c32.11-26.12,56.88-27.73,92.58-26,40.67,2,90.06-11.68,127.22-46.95C806.8,214.06,819.3,118.89,768,64.84Z"/><path class="cls-1" d="M343,221.82c3.49-38.28,1.69-65.19-53.95-117.63,0,0-63.75-60.52-99.81-94.77C159.1-19.2,116.3,23.8,147.14,53.09L251.7,152.34a16.68,16.68,0,0,1,.61,23.56l-3.07,3.24a16.66,16.66,0,0,1-23.56.59l-105-99.68c-17.24-16.39-33.4-9.67-43.95,1.44s-16.4,27.58.83,44l105,99.7a16.66,16.66,0,0,1,.61,23.56L180.1,252a16.66,16.66,0,0,1-23.56.63L52,153.31C21.14,124-19.56,169,10.59,197.58c36.06,34.28,99.81,94.8,99.81,94.8,55.24,52.85,82.2,53.27,120.26,47.78,30.64-4.42,52.93-11.92,87.45,20.89l304,288.65,50.29-53-304-288.68C333.86,275.29,340.2,252.65,343,221.82Z"/></g></g></svg>