<svg xmlns="http://www.w3.org/2000/svg" viewBox="0 0 475 675"><defs><style>.cls-1{fill:#da2382;}</style></defs><g id="Camada_2" data-name="Camada 2"><g id="Camada_1-2" data-name="Camada 1"><path class="cls-1" d="M462.5,625A12.52,12.52,0,0,1,475,637.5V675H0V637.5A12.5,12.5,0,0,1,12.5,625H54.25c2.08-166.45,110.8-220.1,110.8-287.37C165.05,270,54.33,265.5,53.28,50H12.5A12.5,12.5,0,0,1,0,37.5V0H475V37.5A12.52,12.52,0,0,1,462.5,50H424.25C423.2,265.5,312.47,270,312.47,337.63c0,67.27,108.75,120.92,110.83,287.37ZM277.78,337.62c0-67.9,110.75-72.12,111.77-287.62H88c1,215.5,111.77,219.72,111.77,287.62C199.75,402.9,91,457.92,88.93,625h18.95c4.45-14.83,19.22-32.65,44.75-45.85l33.17-16.93q31.27-16.15,37.5-21.8t14.1-25.19c5.53,13,10.25,21.42,14.25,25.19s16.35,11,37.1,21.8l33,16.93c25.38,13.2,40.1,31,44.48,45.85h22.34c-2.05-167.08-110.79-222.1-110.79-287.37Zm-26-36.7c-3,5.9-5.53,17.13-7.52,33.68-.51,5-1.61,12.52-3.38,22.55q-2.62-15-3.38-22.55c-2-16.55-4.55-27.75-7.57-33.68s-11.55-16.45-25.63-31.77L173,235q-32.07-34.57-41.1-49.6,55.65,35.43,108.67,35.45t109.05-35.45q-9.37,15-41.22,49.6l-31.15,34.2q-21,23-25.5,31.77Z"/></g></g></svg>