<svg xmlns="http://www.w3.org/2000/svg" viewBox="0 0 649.9 798.88"><defs><style>.cls-1{fill:#da2382;}</style></defs><g id="Camada_2" data-name="Camada 2"><g id="Camada_1-2" data-name="Camada 1"><path class="cls-1" d="M322.18,798.88C133.7,798.88,0,668.18,0,488.1c0-95.6,57.33-198.6,59.75-202.9a25,25,0,0,1,46,5.85c.15.6,15.6,58.4,36,90.5,13.7,21.6,27.6,36.88,43.23,47.48-10.58-45.83-18.68-114.78-5.5-185.53C215.63,49.3,368.48,2.83,375,1a25,25,0,0,1,31.45,28.75c-.25,1.35-25.5,137.32,28.07,253.17a396.86,396.86,0,0,0,18.95,35,344.77,344.77,0,0,1,10.25-52c19.65-68.73,70.47-92.2,72.6-93.15a25,25,0,0,1,34.8,27.37c-.28,1.7-7.35,48.45,32.45,114.8,35.95,59.9,46.3,98.73,46.3,173.2,0,180.08-137.85,310.75-327.78,310.75Zm-244.33-434C64.13,399.45,50,445.48,50,488.1c0,151.1,112.65,260.75,272.17,260.75,161,0,277.75-109.65,277.75-260.77,0-65.28-8.07-95.55-39.17-147.48-20.8-34.65-31.08-65.82-36-90.62a116.8,116.8,0,0,0-12.9,29.6c-15.25,53.27-11.4,115.57-11.35,116.22a25,25,0,0,1-45.37,16.1c-1.88-2.67-46.35-65.6-65.93-108-40.7-87.95-40-183.07-35.85-237.85-41.2,24-104.42,77.6-124.72,186.65-19.78,106.1,18.65,212.2,19.05,213.23A25,25,0,0,1,218.5,499.2c-3.1-.75-73.45-19.05-119-90.85-8.13-12.85-15.43-28.42-21.6-43.55Z"/></g></g></svg>