<?xml version="1.0" encoding="utf-8"?>
<!-- Generator: Adobe Illustrator 24.2.1, SVG Export Plug-In . SVG Version: 6.00 Build 0)  -->
<svg version="1.1" id="Camada_1" xmlns="http://www.w3.org/2000/svg" xmlns:xlink="http://www.w3.org/1999/xlink" x="0px" y="0px"
	 viewBox="0 0 695.7 729.1" style="enable-background:new 0 0 695.7 729.1;" xml:space="preserve">
<style type="text/css">
	.st0{opacity:0.21;fill:none;stroke:#2196F3;stroke-width:4;stroke-miterlimit:10;stroke-dasharray:12;enable-background:new    ;}
	.st1{opacity:0.5;fill:none;stroke:#2196F3;stroke-width:4;stroke-miterlimit:10;stroke-dasharray:12;enable-background:new    ;}
	.st2{opacity:0.21;}
	.st3{fill:none;stroke:#2196F3;stroke-width:4;stroke-miterlimit:10;}
	.st4{fill:none;stroke:#2196F3;stroke-width:4;stroke-miterlimit:10;stroke-dasharray:11.95,11.95;}
	.st5{opacity:0.5;}
	.st6{fill:none;stroke:#2196F3;stroke-width:4;stroke-miterlimit:10;stroke-dasharray:11.56,11.56;}
	.st7{fill:url(#Caminho_9_1_);}
	.st8{fill:#FFFFFF;}
	.st9{fill:#DA2382;}
	.st10{fill:#DBDBDB;}
	.st11{opacity:0.2;}
</style>
<g id="Grupo_4" transform="translate(-855 -1196)">
	<g id="contact-1" transform="translate(813.995 1162.053)">
		<path id="Caminho_1" class="st0" d="M131.1,394.5c0-159.3,101.6-294.8,243.5-345.4"/>
		<path id="Caminho_2" class="st1" d="M672.3,716.8c-53.6,29.1-113.7,44.3-174.7,44.2c-119.5,0-225.7-57.2-292.6-145.8"/>
		<g id="Grupo_1" class="st2">
			<path id="Caminho_3" class="st3" d="M734.8,463.6c-0.6,1.9-1.1,3.8-1.8,5.7"/>
			<path id="Caminho_4" class="st4" d="M729.2,480.7c-35,93.9-125.5,160.8-231.6,160.8c-136.4,0-247-110.6-247-247
				s110.6-247,247-247c54.1-0.1,106.8,17.7,149.8,50.6"/>
			<path id="Caminho_5" class="st3" d="M652.1,201.8c1.6,1.3,3.1,2.5,4.6,3.8"/>
		</g>
		<g id="Grupo_2" class="st5">
			<path id="Caminho_6" class="st3" d="M476.6,256.1c2-0.3,4-0.5,6-0.8"/>
			<path id="Caminho_7" class="st6" d="M494.1,254.5h3.5c77.3,0,140,62.8,140,140.1c0,23.8-6.1,47.3-17.7,68.1"/>
			<path id="Caminho_8" class="st3" d="M616.9,467.7c-1,1.7-2.1,3.4-3.3,5"/>
		</g>
		
			<linearGradient id="Caminho_9_1_" gradientUnits="userSpaceOnUse" x1="-121.311" y1="1038.7826" x2="-120.817" y2="1039.7036" gradientTransform="matrix(516.2295 0 0 -653.994 62855.4336 679879)">
			<stop  offset="0" style="stop-color:#808080;stop-opacity:0.251"/>
			<stop  offset="0.54" style="stop-color:#808080;stop-opacity:0.122"/>
			<stop  offset="1" style="stop-color:#808080;stop-opacity:0.102"/>
		</linearGradient>
		<path id="Caminho_9" class="st7" d="M48.5,151.1L322.8,34.9c6.2-2.6,13.4,0.3,16.1,6.5l217.4,513.3c2.6,6.2-0.3,13.4-6.5,16.1
			L275.4,687c-6.2,2.6-13.4-0.3-16.1-6.5L42,167.1c-2.6-6.2,0.2-13.3,6.4-16C48.4,151.1,48.5,151.1,48.5,151.1z"/>
		<path id="Caminho_10" class="st8" d="M56.8,156.1L320.6,44.4c6.9-2.9,14.9,0.3,17.9,7.2l210.1,496.3c2.9,6.9-0.3,14.9-7.2,17.9
			L277.6,677.5c-6.9,2.9-14.9-0.3-17.9-7.2L49.6,174C46.7,167.1,49.9,159.1,56.8,156.1z"/>
		<path id="Caminho_11" class="st9" d="M268,86.5c3.1,12.1-3.1,24.8-14.6,29.7l-99.8,42.3c-11.6,4.9-25,0.6-31.5-10.1l-52.8,22.4
			c-6,2.5-8.9,9.4-6.4,15.5c0,0,0,0.1,0.1,0.1l0,0l200.5,473.3c2.5,6,9.4,8.9,15.5,6.4c0,0,0.1,0,0.1-0.1l0,0l252.4-106.9
			c6-2.5,8.9-9.4,6.4-15.5c0,0,0-0.1-0.1-0.1l0,0L337.3,70.1c-2.5-6-9.4-8.9-15.5-6.4c0,0-0.1,0-0.1,0.1l0,0L268,86.5z"/>
		<path id="Caminho_12" class="st10" d="M167,132.2l60.6-25.7c1-0.4,2.1,0,2.6,1c0,0,0,0.1,0,0.1l0.1,0.3c0.4,1,0,2.1-1,2.6
			c0,0-0.1,0-0.1,0l-60.7,25.7c-1,0.4-2.1,0-2.6-1c0,0,0-0.1,0-0.1l-0.1-0.3C165.5,133.8,166,132.6,167,132.2z"/>
		<circle id="Elipse_1" class="st10" cx="243.8" cy="101.6" r="2.6"/>
		<g id="Grupo_3" class="st11">
			<path id="Caminho_15" class="st8" d="M170.4,161.5l99.8-42.3c11.6-4.9,17.8-17.5,14.6-29.7l51-21.6l-0.8-1.8
				c-2.5-6-9.4-8.9-15.5-6.4c0,0-0.1,0-0.1,0.1l0,0l-53.6,22.7c3.1,12.1-3.1,24.8-14.6,29.7l-99.8,42.3c-2.7,1.1-5.5,1.8-8.4,1.9
				C150.3,163.4,161.1,165.4,170.4,161.5z"/>
			<path id="Caminho_16" class="st8" d="M79.7,189.3c-2.6-6,0.3-13,6.3-15.6l0,0l45.5-19.3c-4.9-2.1-9-5.6-11.7-10.1l-52.9,22.4
				c-6,2.5-8.9,9.4-6.4,15.5c0,0,0,0.1,0.1,0.1l0,0l200.5,473.3c2.5,6,9.4,8.9,15.5,6.4c0,0,0.1,0,0.1-0.1l0,0l2.6-1.1L79.7,189.3z"
				/>
		</g>
	</g>
	<path id="iconmonstr-whatsapp-1" class="st8" d="M1069.8,1624.1l0.2-39.8c-28.9-29-28.9-75.9,0.1-104.8
		c29-28.9,75.9-28.9,104.8,0.1c28.9,29,28.9,75.9-0.1,104.8c-18.3,18.2-44.7,25.7-69.8,19.6L1069.8,1624.1z M1103.3,1590.5
		c11.7,3.3,22.3,4.3,35,0.9c32.9-8.8,52.4-42.6,43.6-75.5c-8.8-32.9-42.6-52.4-75.5-43.6s-52.4,42.6-43.6,75.5c0,0,0,0,0,0
		c3.6,13.4,10.2,22.4,19.6,31.1l-0.1,23.6L1103.3,1590.5L1103.3,1590.5z M1163.1,1539.2c-0.6-0.6-2-0.8-4-1.2s-12-2.4-13.8-2.5
		c-1.8-0.2-3.1-0.1-3.8,2s-3.1,7.1-3.8,8.5c-0.7,1.5-1.7,1.9-3.8,1.5c-5.8-0.7-11.5-2.4-16.8-5c-4.9-2.6-9.4-5.8-13.3-9.7
		c-1.5-1.5-0.8-2.7-0.2-3.9c0.6-1,1.2-2.6,1.8-3.9c0.5-1.1,0.8-2.3,1-3.5c0.2-1.1-0.2-2.3-1-3.1c-0.7-0.8-6.6-8.6-9.1-11.8
		c-2.4-3.1-3.7-2.2-4.9-2l-3.4,0.9c-1.8,0.5-3.3,1.8-4.2,3.5c-3,5-3.9,11-2.3,16.6c2.4,8.8,11.1,15.6,12.3,16.6
		c1.2,1,17.8,15.9,37.8,18.8c3.7,0.5,7.5,0.9,11.2,1c3.9,0.1,7.9-0.7,11.5-2.3c3.3-1.4,9.4-7.2,9.8-11.7
		C1164.7,1543.4,1163.7,1539.8,1163.1,1539.2L1163.1,1539.2z"/>
</g>
</svg>
